<svg width="330" height="715" viewBox="0 0 330 715" fill="none" xmlns="http://www.w3.org/2000/svg">
<g clip-path="url(#clip0_262_18)">
<rect width="330" height="715" fill="#24242F"/>
<rect width="330" height="715" fill="#151C30"/>
<rect width="330" height="411" fill="url(#paint0_linear_262_18)"/>
<path d="M330 406H0V635.386H330V406Z" fill="url(#paint1_linear_262_18)"/>
<path d="M61.5034 575.571L272.734 575.326L258.491 594.397L166.649 601.94L74.4028 594.404L61.5034 575.571Z" fill="#3C5F7C"/>
<g opacity="0.5">
<path d="M161.2 572.779L163.592 573.898L164.801 572.975L165.465 573.898L166.129 573.122L166.909 573.898L167.533 572.158L168.547 574.002L169.523 573.164L170.42 574.002L171.279 572.01L172.294 574.129L174.192 573.7L175.806 574.129L176.704 573.752L178.03 574.554L179.748 574.99L180.836 575.632L161.201 575.566L161.2 572.779Z" fill="#3F2C36"/>
<path d="M65.082 575.571C65.1489 575.504 66.1064 570.786 66.2402 570.875C66.3741 570.964 67.0423 572.471 67.0423 572.471L68.9142 569.39L69.5829 570.499L70.1842 570.454C70.1842 570.454 70.6522 571.805 70.6522 571.85C70.6522 571.894 70.9863 571.229 70.9863 571.229L71.5881 571.916L72.056 571.141L72.524 571.65L73.9948 568.569L74.9307 571.096L77.232 566.252L79.9449 568.835L80.6136 567.749L81.0815 569.345L81.7502 568.303L82.7531 570.076L83.7559 567.505L84.2239 570.585L85.026 569.588L85.8949 570.364L86.9642 567.394L88.2347 570.209L89.2376 568.724L90.3738 570.408L90.8417 569.632L91.3097 570.607L91.8446 569.677L92.2456 570.475L92.8474 569.211L93.4492 570.519C93.4492 570.519 94.1844 570.01 94.2513 570.076C94.3182 570.142 95.7225 572.115 95.7225 572.115L96.3239 571.383C96.3239 571.383 97.1933 572.58 97.1933 572.625C97.1933 572.669 98.1962 571.339 97.9954 571.383L98.7306 572.004L99.2654 570.585L100.001 571.583L100.669 570.829L101.07 571.583L101.738 569.411L102.874 571.782C102.874 571.782 103.476 570.896 103.61 570.963C103.744 571.029 104.412 572.536 104.412 572.536L105.014 571.893L105.348 572.913L105.883 572.292L106.552 573.777L107.22 573.445L107.822 573.71L108.356 571.826L109.292 572.713L110.094 569.478L110.897 571.206L111.632 570.164L112.568 572.026L113.103 571.605L113.905 572.425L114.48 575.564L65.082 575.571Z" fill="#3F2C36"/>
<path d="M176.59 572.719L178.981 573.838L180.191 572.915L180.855 573.838L181.518 573.062L182.298 573.838L182.923 572.097L183.937 573.941L184.913 573.105L185.811 573.941L186.669 571.95L187.684 574.069L189.581 573.639L191.196 574.069L192.093 573.692L194.128 572.878C194.128 572.878 195.756 572.628 196.472 573.217C197.188 573.806 197.745 575.405 197.745 575.405L176.781 575.632L176.59 572.719Z" fill="#3F2C36"/>
<path d="M111.993 575.543C112.06 575.476 113.397 571.442 113.53 571.532C113.664 571.62 114.332 573.128 114.332 573.128L116.204 570.047L116.873 571.155L117.474 571.111C117.474 571.111 117.942 572.462 117.942 572.507C117.942 572.551 118.276 571.886 118.276 571.886L118.878 572.573L119.346 571.798L119.814 572.307L121.285 569.227L123.902 572.137L126.014 566.841L127.235 569.493L127.903 568.406L128.371 570.003L129.039 568.961L130.042 570.734L131.045 568.163L131.513 571.243L132.315 570.246L133.184 571.022L134.254 568.052L135.524 570.866L136.527 569.381L137.663 571.066L138.131 570.29L138.599 571.265L139.134 570.335L139.534 571.132L140.136 569.869L140.738 571.176C140.738 571.176 141.473 570.667 141.54 570.733C141.607 570.8 143.011 572.772 143.011 572.772L143.612 572.041C143.612 572.041 144.482 573.237 144.482 573.282C144.482 573.326 145.484 571.997 145.283 572.041L146.019 572.662L146.554 571.243L147.289 572.241L147.958 571.487L148.359 572.241L149.027 570.069L150.164 572.44C150.164 572.44 150.765 571.553 150.899 571.62C151.033 571.686 151.701 573.194 151.701 573.194L152.304 572.551L152.637 573.571L153.172 572.95L153.841 574.434L154.509 574.102L155.111 574.368L155.646 572.484L156.581 573.371L157.384 570.135L158.186 571.863L158.921 570.822L159.857 572.683L160.392 572.262L161.194 573.082L162.006 575.57L111.993 575.543Z" fill="#3F2C36"/>
</g>
<path d="M292.347 572.362L294.739 573.48L295.948 572.558L296.612 573.48L297.276 572.704L298.056 573.48L298.68 571.74L299.694 573.583L300.67 572.747L301.567 573.583L302.426 571.592L303.441 573.712L305.338 573.282L306.953 573.712L307.851 573.333L309.177 574.136L310.894 574.572L311.983 575.215L292.348 575.148L292.347 572.362Z" fill="#3F2C36"/>
<path opacity="0.8" d="M66.4277 575.227L167.57 575.633L169.222 575.628L264.184 575.336L265.003 578.256C265.003 578.256 212.838 576.996 206.106 576.796C199.375 576.595 110.458 576.537 109.885 576.796C109.312 577.055 68.2602 578.256 68.2602 578.256L66.4277 575.227Z" fill="#33556D"/>
<path opacity="0.8" d="M72.0869 588.253L77.7638 592.955L173.789 602.337L256.785 592.298L261.262 587.448L175.244 599.153L72.0869 588.253Z" fill="#33556D"/>
<path opacity="0.5" d="M197.746 575.405C197.813 575.338 198.305 570.513 198.438 570.602C198.572 570.69 199.24 572.197 199.24 572.197L201.113 569.116L201.781 570.225L202.383 570.18C202.383 570.18 202.851 571.532 202.851 571.576C202.851 571.621 203.185 570.956 203.185 570.956L203.786 571.643L204.254 570.867L204.722 571.376L206.193 568.296L207.157 571.736L208.657 570.021L209.593 571.205L211.197 567.114L211.961 569.196L212.812 567.476L213.28 569.072L213.949 568.03L214.951 569.803L215.954 567.232L216.422 570.312L217.224 569.315L218.093 570.091L219.163 567.121L220.433 569.935L221.436 568.451L222.572 570.135L223.04 569.359L223.508 570.334L224.042 569.404L224.444 570.201L225.045 568.938L225.647 570.245C225.647 570.245 226.382 569.736 226.449 569.802C226.516 569.869 227.92 571.842 227.92 571.842L228.521 571.11C228.521 571.11 229.39 572.306 229.39 572.351C229.39 572.395 230.393 571.066 230.192 571.11L230.928 571.731L231.462 570.312L232.198 571.31L232.866 570.556L233.267 571.31L233.936 569.137L235.072 571.509C235.072 571.509 235.674 570.622 235.807 570.689C235.941 570.756 236.609 572.263 236.609 572.263L237.211 571.62L237.545 572.639L238.08 572.019L238.749 573.504L239.418 573.171L240.019 573.437L240.554 571.553L241.489 572.44L242.292 569.204L243.094 570.932L243.83 569.891L244.766 571.752L245.3 571.332L246.102 572.151L246.678 575.291L197.746 575.405Z" fill="#3F2C36"/>
<path d="M307.737 572.301L310.128 573.421L311.337 572.497L312.001 573.421L312.665 572.644L313.445 573.421L314.07 571.679L315.084 573.523L316.06 572.686L316.958 573.523L317.816 571.532L318.831 573.651L320.728 573.222L322.343 573.651L323.24 573.274L325.275 572.461L326.401 571.999L328.893 575.504L307.928 575.215L307.737 572.301Z" fill="#3F2C36"/>
<path d="M0 567.909L38.797 588.218L165 600.414L273.674 590.804L330 572.155V637.596H0V567.909Z" fill="#151C30"/>
<path d="M70.0512 591.399L97.014 594.236L99.3103 599.153L89.4493 599.764L90.5474 605.85C88.1526 608.954 70.0507 604.568 70.0507 604.568C70.0507 604.568 72.5523 608.396 73.7912 609.1C75.0301 609.805 64.3766 612.824 64.3766 612.824L73.7917 616.531L65.609 623.671C65.609 623.671 62.3072 627.144 72.0867 628.633C87.6943 631.01 53.988 637.596 53.988 637.596L0 637.224V617.495L70.0512 591.399Z" fill="#101721"/>
<path opacity="0.5" d="M246.299 575.419C246.366 575.333 247.324 569.259 247.457 569.374C247.591 569.488 248.259 571.428 248.259 571.428L250.131 567.462L250.8 568.889L251.401 568.831C251.401 568.831 251.869 570.572 251.869 570.628C251.869 570.686 252.204 569.83 252.204 569.83L252.805 570.715L253.273 569.716L253.741 570.372L255.212 566.406L256.176 570.835L257.676 568.628L258.612 570.151L260.216 564.884L260.98 567.565L261.831 565.351L262.299 567.405L262.967 566.064L263.97 568.347L264.973 565.037L265.441 569.002L266.243 567.719L267.112 568.718L268.181 564.895L269.452 568.518L270.455 566.607L271.591 568.775L272.059 567.776L272.527 569.032L273.061 567.834L273.462 568.861L274.064 567.234L274.666 568.917C274.666 568.917 275.401 568.262 275.468 568.347C275.535 568.433 276.939 570.972 276.939 570.972L277.54 570.03C277.54 570.03 278.409 571.571 278.409 571.629C278.409 571.685 279.412 569.973 279.211 570.03L279.947 570.83L280.481 569.002L281.216 570.287L281.885 569.316L282.286 570.287L282.954 567.491L284.091 570.544C284.091 570.544 284.692 569.403 284.826 569.489C284.96 569.574 285.628 571.514 285.628 571.514L286.23 570.686L286.564 571.999L287.099 571.199L287.768 573.111L288.437 572.683L289.038 573.025L289.573 570.6L290.508 571.742L291.311 567.577L292.113 569.802L292.849 568.461L293.784 570.857L294.319 570.315L295.121 571.371L295.697 575.413L246.299 575.419Z" fill="#3F2C36"/>
<path d="M268.721 617.464C269.893 617.476 270.34 617.301 268.212 617.133C263.67 616.775 262.635 616.416 261.615 616.339C261.615 616.339 274.354 616.019 274.991 616.032C276.623 616.067 275.561 615.285 273.589 615.235C271.616 615.185 259.722 614.613 259.722 614.613C259.722 614.613 269.5 614.445 269.576 614.025C269.652 613.605 257.166 612.658 257.166 612.658L270.868 612.089C270.868 612.089 253.614 611.266 250.256 611.314C246.897 611.362 237.57 611.729 237.57 611.729L217.384 612.556L228.341 613.267L222.176 613.793C222.176 613.793 208.055 614.538 207.346 614.699C203.27 615.62 214.689 616.51 211.58 616.368C211.58 616.368 223.175 616.745 217.407 616.883C205.737 617.161 200.022 616.788 201.208 617.474C202.468 618.203 217.479 617.951 217.479 617.951C217.479 617.951 203.653 618.693 206.106 619.274C207.968 619.715 221.901 619.116 221.901 619.116C221.901 619.116 216.686 619.721 216.793 620.143C216.901 620.564 242.458 620.727 242.458 620.727C242.458 620.727 261.316 620.404 262.696 620.007C264.076 619.61 261.765 619.116 261.765 619.116C261.765 619.116 272.148 618.749 273.682 618.691C275.216 618.633 275.457 618.292 273.062 618.251C270.667 618.211 257.201 617.474 257.201 617.474C267.409 617.466 263.398 617.41 268.721 617.464Z" fill="#3F2C36"/>
<path d="M61.9033 555.959L68.2604 558.611C68.2604 558.611 67.2429 559.715 66.076 559.263C62.5908 557.912 61.9033 555.959 61.9033 555.959Z" fill="#151C30"/>
<path d="M59.8604 542.002L66.4274 545.171C66.4274 545.171 65.0789 545.613 63.912 545.161C60.4264 543.81 59.8604 542.002 59.8604 542.002Z" fill="#151C30"/>
<path d="M42.5884 491.478L51.733 513.616L46.8445 508.408L47.608 516.832L41.8784 503.543L42.5884 491.478Z" fill="#212C44"/>
<path d="M42.4138 490.793C42.4138 490.793 40.2111 502.229 34.4696 508.561C31.4138 511.931 39.0529 505.651 39.0529 505.651L33.7481 513.31L38.0808 512.237C38.0808 512.237 37.8686 512.829 37.4858 513.617C36.9148 514.793 35.9646 516.405 34.7748 517.139C32.7888 518.365 39.5112 513.31 39.5112 513.31C39.5112 513.31 41.956 517.445 40.4279 519.59C38.8998 521.735 43.0111 518.519 42.4138 512.237C42.1081 509.021 44.2476 516.22 45.4696 517.905C45.4696 517.905 45.6226 515.607 45.4696 514.842C45.3165 514.075 47.6081 517.905 47.6081 517.905C47.6081 517.905 45.0112 510.553 43.3571 505.523C42.9996 504.437 42.0981 500.586 44.8581 503.354C45.9274 504.426 42.4138 490.793 42.4138 490.793Z" fill="#111828"/>
<path d="M46.8442 508.409L51.7328 513.616L46.8442 510.399V508.409Z" fill="#111828"/>
<path d="M47.1855 512.172L50.3581 518.365L47.6081 516.297L47.1855 512.172Z" fill="#151C30"/>
<path d="M55.7402 570.829C55.7402 570.829 75.9577 585.462 82.5243 588.909C87.4742 591.507 75.4975 588.909 75.4975 588.909L84.3127 595.819L76.1997 593.055L82.29 597.718C82.29 597.718 68.2605 603.691 63.6913 596.272C62.5111 594.356 65.0819 601.968 65.0819 601.968L56.6037 595.819L57.6963 600.136L52.3086 596.509L54.2199 605.529C54.2199 605.529 53.108 606.559 50.358 605.683C47.1776 604.668 46.7358 601.846 46.8444 601.607C47.0781 601.089 46.6088 586.192 44.8914 580.208C43.1745 574.225 46.2884 566.051 55.7402 570.829Z" fill="#212C44"/>
<path d="M46.5926 602.337L52.5198 585.158L57.0628 585.541L55.5581 582.498L63.144 592.051L59.3251 577.729C59.3251 577.729 63.2847 580.091 65.921 580.779C68.5574 581.468 70.7739 579.938 70.7739 579.938L63.7059 577.256L58.4085 572.56L56.2314 573.762L54.8257 577.429L55.4559 579.554L52.9057 577.544L33.0649 585.771L46.5926 602.337Z" fill="#111828"/>
<path d="M55.5346 555.96C55.5346 555.96 65.0817 568.683 70.9259 572.164C74.3162 574.184 66.3641 572.164 66.3641 572.164L72.0869 578.262L66.8201 575.823L70.7733 579.938C70.7733 579.938 61.0424 579.024 58.4574 575.061C55.8724 571.097 58.6096 584.359 58.6096 584.359L54.0991 578.262L54.8082 582.072L51.3111 578.871L45.8876 593.59C45.8876 593.59 45.8459 590.571 44.2834 587.882C42.9382 585.567 40.6777 579.49 40.6777 579.49C40.8299 579.033 47.6109 569.766 46.4963 564.485C45.3816 559.205 49.3989 551.743 55.5346 555.96Z" fill="#212C44"/>
<path d="M46.0337 581.405L50.4699 564.09L55.4125 569.392L53.7107 563.944L58.9435 571.22L56.738 559.119C56.738 559.119 59.984 561.609 62.6198 562.298C65.2557 562.986 68.9458 562.418 68.9458 562.418L60.4042 558.775L55.5345 555.96L55.1907 561.13L51.524 558.947L52.1543 561.072L49.6041 559.062L41.8784 564.001L46.0337 581.405Z" fill="#111828"/>
<path d="M39.7753 510.056L37.0276 512.498C37.0276 512.498 29.4651 521.542 24.9963 523.84C20.5276 526.137 29.3505 523.266 29.3505 523.266C29.3505 523.266 27.6263 527.516 23.7332 528.32C19.8401 529.124 31.1838 530.388 33.1318 528.32C35.0797 526.253 33.2372 532.611 21.4443 538.544C17.4774 540.54 29.0068 537.97 31.7568 536.361C31.7568 536.361 31.842 538.4 24.3088 541.531C19.6109 543.484 32.5588 540.957 32.5588 540.957C32.5588 540.957 30.038 543.139 29.8088 543.254C29.5797 543.369 33.5901 542.22 32.6734 544.288C31.7568 546.356 39.7391 544.863 41.8781 547.964C44.0172 551.066 45.5068 550.377 45.5068 550.377L42.6422 519.704C42.6422 519.704 40.8281 510.401 39.7753 510.056Z" fill="#111828"/>
<path d="M51.7109 538.688C51.7109 538.688 57.7755 550.442 69.0982 554.643C72.7969 556.016 64.5364 554.643 64.5364 554.643L68.2604 558.611C67.6897 559.98 61.7314 555.96 61.7314 555.96L68.946 562.418C68.946 562.418 59.2152 561.504 56.6302 557.54C54.0452 553.576 56.7823 566.838 56.7823 566.838L52.2719 560.741L52.9809 564.552L49.4838 561.351L46.0335 576.006C46.0335 576.006 38.8661 568.407 38.471 568.682C35.4859 570.763 45.7837 552.246 44.6686 546.965C43.5539 541.685 45.5756 534.471 51.7109 538.688Z" fill="#212C44"/>
<path d="M43.4644 564.02L49.2728 548.033L53.5958 554.064L52.7103 548.952L57.0626 554.72L55.0593 544.357C55.0593 544.357 58.3052 546.847 60.9411 547.535C63.5769 548.224 65.6087 546.907 65.6087 546.907L58.7255 544.012L53.8557 541.198L53.5119 546.367L49.8453 544.184L50.4755 546.31L47.9253 544.299L43.4644 550.442V564.02Z" fill="#111828"/>
<path d="M38.1547 538.953L36.4698 539.004C36.4698 539.004 23.4816 546.496 16.1822 547.899C8.88274 549.302 23.0888 548.183 23.0888 548.183C23.0888 548.183 19.858 552.063 13.6467 552.097C7.43532 552.131 25.0885 555.611 28.4013 553.941C31.7146 552.271 28.0379 558.22 8.79153 561.794C2.31711 562.996 20.7348 562.707 25.2507 561.651C25.2507 561.651 25.1329 563.69 12.9202 565.319C5.30407 566.336 25.9433 566.368 25.9433 566.368C25.9433 566.368 21.7165 568.039 21.3421 568.108C20.9685 568.177 27.4058 567.824 25.7118 569.696C24.0178 571.568 36.7334 571.652 39.7089 575.15L39.7726 568.155L46.0329 548.204C46.0334 548.205 39.7643 539.501 38.1547 538.953Z" fill="#111828"/>
<path d="M50.3834 526.094C50.3834 526.094 58.2938 536.258 65.4227 539.896C69.456 541.954 61.4769 539.896 61.4769 539.896L66.4269 545.17L61.8715 543.06L65.6088 546.907C65.6088 546.907 56.8739 545.829 54.6376 542.401C52.4019 538.972 54.7692 550.444 54.7692 550.444L50.8679 545.17L51.4811 548.466L48.4561 545.697C48.4561 545.697 46.2171 553.337 45.3711 551.912C43.8677 549.379 41.7965 545.818 41.8804 545.565C42.0119 545.17 43.6743 537.953 42.71 533.385C41.7461 528.819 45.0764 522.446 50.3834 526.094Z" fill="#212C44"/>
<path d="M41.8783 585.005L44.7089 571.191C44.7089 571.191 36.5286 563.254 34.4886 562.652L34.3506 563.762L34.4886 562.652C34.4886 562.652 18.4089 569.757 9.28299 570.932C0.157573 572.107 17.9693 571.439 17.9693 571.439C17.9693 571.439 14.0336 575.231 6.23095 575.066C-1.57172 574.901 20.7184 578.96 24.8278 577.39C28.7988 575.873 24.7934 581.289 2.80078 584.336V585.484C8.28932 585.688 17.7727 585.572 21.1149 585.029C21.1149 585.029 21.0314 587.073 5.74007 588.318C-3.79647 589.094 22.1351 589.788 22.1351 589.788C22.1351 589.788 15.9646 591.233 16.4101 591.388C26.7299 594.961 12.5807 596.377 10.5122 598.203C8.44332 600.028 34.9267 596.409 38.7763 600.016C42.6263 603.623 46.5927 602.337 46.5927 602.337L41.8783 585.005Z" fill="#111828"/>
<path d="M45.1792 529.852L45.368 528.516V537.822C45.368 537.822 46.3507 531.106 47.6079 532.62C48.5402 533.742 50.3304 533.399 50.3304 533.399L49.2886 530.98C49.2886 530.98 48.509 528.411 49.2886 530.98C50.0682 533.548 54.2198 535.07 54.2198 535.07C54.2198 535.07 50.0508 526.327 51.594 528.171C53.1372 530.016 59.8605 528.859 59.8605 528.859L54.0562 527.132L50.4693 524.137L47.469 527.252L48.0035 530.124L45.368 528.515" fill="#111828"/>
<path d="M47.1851 511.012C47.1851 511.012 57.0796 520.738 60.288 523.036C63.4963 525.334 56.8505 523.036 56.8505 523.036L61.1629 527.632L57.1942 525.793L60.1734 528.895C60.1734 528.895 52.8401 528.206 50.8921 525.219C48.9442 522.232 51.0067 532.226 51.0067 532.226L47.6077 527.632L48.1421 530.503L45.5067 528.091L44.1363 535.705C44.1363 535.705 39.663 528.321 39.7776 527.976C39.8921 527.632 42.7182 521.23 41.8781 517.251C41.038 513.272 42.5615 507.834 47.1851 511.012Z" fill="#212C44"/>
<path d="M43.6655 510.056L47.1855 520.253V515.852L44.5057 509.338L43.6655 510.056Z" fill="#111828"/>
<path d="M41.8784 532.314L42.2144 529.863L45.8247 533.003L45.3682 537.822L43.6655 533.842L41.8784 532.314Z" fill="#111828"/>
<path d="M30.3809 560.701L39.7354 564.603C39.7354 564.603 38.2385 566.227 36.5211 565.562C31.3924 563.575 30.3809 560.701 30.3809 560.701Z" fill="#101726"/>
<path d="M27.375 540.161L37.0385 544.824C37.0385 544.824 35.0539 545.474 33.3365 544.81C28.2078 542.823 27.375 540.161 27.375 540.161Z" fill="#101726"/>
<path d="M1.95812 465.814L15.4148 498.391L8.22124 490.728L9.34507 503.124L0.913574 483.569L1.95812 465.814Z" fill="#222642"/>
<path d="M9.34496 504.703C9.34496 504.703 5.52337 493.884 3.08917 486.482C2.563 484.883 1.23658 479.216 5.29833 483.29C6.87179 484.867 1.70133 464.806 1.70133 464.806C1.70133 464.806 1.17471 467.529 0 471.384V505.918C1.045 503.904 2.10512 500.612 1.70133 496.362C1.25171 491.629 4.39954 502.224 6.19804 504.703C6.19804 504.703 6.42308 501.322 6.19804 500.195C5.97254 499.067 9.34496 504.703 9.34496 504.703Z" fill="#101726"/>
<path d="M8.22119 490.728L15.4147 498.391L8.22119 493.658V490.728Z" fill="#101726"/>
<path d="M8.72314 496.266L13.3917 505.379L9.3451 502.336L8.72314 496.266Z" fill="#151C30"/>
<path d="M21.3119 582.582C21.3119 582.582 51.0632 604.115 60.7253 609.187C68.0096 613.01 50.3853 609.187 50.3853 609.187L63.3576 619.355L51.4189 615.287L60.3807 622.15C60.3807 622.15 39.7355 630.941 33.0122 620.023C31.2756 617.203 35.0582 628.405 35.0582 628.405L22.5824 619.355L24.1902 625.709L16.2615 620.372L19.0738 633.646C19.0738 633.646 17.4376 635.162 13.391 633.872C8.71093 632.379 8.06101 628.226 8.22051 627.874C8.56426 627.112 7.87401 605.19 5.3463 596.385C2.82043 587.58 7.40239 575.55 21.3119 582.582Z" fill="#222642"/>
<path d="M33.033 592.04L25.2377 585.128L22.0339 586.898L19.965 592.294L20.8922 595.421L17.1394 592.463L0 599.57V619.333L7.85079 628.947L16.5724 603.668L23.2572 604.231L22.2562 600.577L32.2057 613.812L26.5861 592.736C26.5861 592.736 32.4129 596.212 36.2922 597.225C40.1715 598.238 45.6014 597.401 45.6014 597.401L33.033 592.04Z" fill="#101726"/>
<path d="M45.3663 593.519L36.9453 584.546C36.9453 584.546 48.647 587.519 43.6581 584.546C35.0579 579.423 21.0095 560.702 21.0095 560.702C11.9808 554.496 6.06879 565.478 7.70917 573.247C9.07179 579.703 2.42092 590.199 0 593.956V597.56C1.11925 600.438 3.10062 605.349 4.45317 607.677C6.75217 611.634 6.81358 616.076 6.81358 616.076L14.7945 594.416L19.9412 599.127L18.8975 593.519L25.5347 602.491C25.5347 602.491 21.5073 582.975 25.311 588.809C29.1147 594.641 43.4344 595.986 43.4344 595.986L37.6172 589.93L45.3663 593.519Z" fill="#222642"/>
<path d="M7.02774 598.146L13.5558 572.666L20.8295 580.468L18.3252 572.451L26.0252 583.157L22.7802 565.351C22.7802 565.351 27.5565 569.016 31.4358 570.029C35.3152 571.042 40.745 570.205 40.745 570.205L28.1762 564.844L21.0101 560.703L20.5041 568.31L15.1086 565.098L16.0358 568.225L12.283 565.267L0.913574 572.534L7.02774 598.146Z" fill="#101726"/>
<path d="M2.03775 507.351C2.03775 507.351 1.09221 502.502 0 498.468V547.967C0.350625 548.252 0.661833 548.57 0.913458 548.936C4.06129 553.5 6.25304 552.486 6.25304 552.486L2.03775 507.351Z" fill="#101726"/>
<path d="M40.9686 558.764C24.3068 552.582 15.3826 535.286 15.3826 535.286C6.35388 529.08 3.37929 539.696 5.01967 547.465C5.78875 551.108 2.86825 559.029 0 566.103V582.976C3.17671 586.118 7.02762 590.201 7.02762 590.201L12.105 568.635L17.2517 573.345L16.208 567.738L22.8452 576.709C22.8452 576.709 18.8178 557.194 22.6215 563.027C26.4252 568.859 40.7449 570.204 40.7449 570.204L30.1281 560.702C30.1281 560.702 38.896 566.618 39.7357 564.603L34.2558 558.764C34.2558 558.764 46.4113 560.784 40.9686 558.764Z" fill="#222642"/>
<path d="M3.24756 572.563L11.7946 549.037L18.1558 557.912L16.8532 550.389L23.2575 558.877L20.3095 543.627C20.3095 543.627 25.0858 547.292 28.9651 548.304C32.8444 549.317 35.8337 547.38 35.8337 547.38L25.705 543.12L18.5389 538.978L18.0329 546.586L12.6374 543.374L13.5646 546.501L9.81181 543.543L3.24756 552.582V572.563Z" fill="#101726"/>
<path d="M0 540.167V571.686L7.02763 549.29C7.02763 549.29 3.31833 544.141 0 540.167Z" fill="#101726"/>
<path d="M13.4292 516.754C13.4292 516.754 25.0695 531.709 35.5603 537.062C41.4953 540.091 29.7541 537.062 29.7541 537.062L37.0384 544.824L30.3348 541.719L35.8348 547.38C35.8348 547.38 22.9809 545.794 19.6905 540.749C16.4006 535.704 19.8839 552.584 19.8839 552.584L14.1428 544.824L15.0453 549.674L10.594 545.6C10.594 545.6 7.299 556.842 6.05371 554.744C3.84179 551.018 0.793419 545.778 0.91671 545.405C1.11013 544.824 3.55671 534.204 2.13771 527.482C0.718711 520.763 5.61967 511.385 13.4292 516.754Z" fill="#222642"/>
<path d="M7.85079 628.947L0.913458 603.442L5.07879 583.116C5.07879 583.116 2.81142 580.916 0 578.354V628.062C4.27258 630.106 7.85079 628.947 7.85079 628.947Z" fill="#101726"/>
<path d="M5.771 522.283L6.04875 520.317V534.012C6.04875 534.012 7.49479 524.129 9.34462 526.356C10.7164 528.008 13.3514 527.503 13.3514 527.503L11.8178 523.943C11.8178 523.943 10.671 520.163 11.8178 523.943C12.965 527.723 19.0741 529.963 19.0741 529.963C19.0741 529.963 12.9393 517.097 15.2104 519.811C17.4814 522.524 27.3745 520.823 27.3745 520.823L18.8335 518.281L13.5549 513.875L9.1402 518.459L9.9267 522.685L6.04875 520.318" fill="#101726"/>
<path d="M29.2921 519.015L22.946 512.253C22.946 512.253 32.7255 515.634 28.0046 512.253C23.2833 508.872 8.72346 494.56 8.72346 494.56C1.9195 489.884 -0.322208 497.884 0.913917 503.739C1.50746 506.552 0.855708 510.186 0 513.261V523.732C1.86083 526.974 4.23637 530.896 4.23637 530.896L6.25304 519.691L10.131 523.241L9.3445 519.015L14.3463 525.776C14.3463 525.776 11.3112 511.07 14.1776 515.465C17.044 519.86 27.8355 520.874 27.8355 520.874L23.4515 516.31L29.2921 519.015Z" fill="#222642"/>
<path d="M3.54297 493.153L8.72305 508.158V501.682L4.77955 492.095L3.54297 493.153Z" fill="#101726"/>
<path d="M0.913574 525.905L1.40766 522.299L6.72112 526.92L6.0492 534.011L3.54303 528.155L0.913574 525.905Z" fill="#101726"/>
<path d="M269.195 557.986L262.561 561.035C262.561 561.035 263.369 561.947 264.536 561.495C268.021 560.144 269.195 557.986 269.195 557.986Z" fill="#151C30"/>
<path d="M270.751 544.234L264.185 547.402C264.185 547.402 265.533 547.845 266.7 547.393C270.185 546.042 270.751 544.234 270.751 544.234Z" fill="#151C30"/>
<path d="M288.023 493.71L278.879 515.848L283.767 510.64L283.004 519.064L288.733 505.775L288.023 493.71Z" fill="#273250"/>
<path d="M288.198 493.025C288.198 493.025 290.401 504.461 296.142 510.793C299.198 514.163 291.559 507.883 291.559 507.883L296.864 515.542L292.531 514.469C292.531 514.469 292.743 515.061 293.126 515.849C293.697 517.025 294.647 518.637 295.837 519.371C297.823 520.596 291.101 515.542 291.101 515.542C291.101 515.542 288.656 519.677 290.184 521.822C291.712 523.967 287.601 520.751 288.198 514.469C288.504 511.253 286.364 518.452 285.142 520.137C285.142 520.137 284.989 517.839 285.142 517.074C285.296 516.307 283.004 520.137 283.004 520.137C283.004 520.137 285.601 512.785 287.255 507.755C287.612 506.668 288.514 502.818 285.754 505.586C284.684 506.658 288.198 493.025 288.198 493.025Z" fill="#151C30"/>
<path d="M283.767 510.641L278.879 515.848L283.767 512.631V510.641Z" fill="#151C30"/>
<path d="M283.426 514.404L280.254 520.597L283.004 518.529L283.426 514.404Z" fill="#151C30"/>
<path d="M274.871 573.061C274.871 573.061 254.654 587.695 248.087 591.141C243.138 593.739 255.114 591.141 255.114 591.141L246.299 598.051L254.412 595.287L248.322 599.95C248.322 599.95 262.351 605.924 266.92 598.505C268.1 596.588 265.53 604.201 265.53 604.201L274.008 598.051L272.915 602.369L278.303 598.741L276.392 607.761C276.392 607.761 277.139 609.754 279.889 608.877C283.069 607.863 283.876 604.079 283.768 603.839C283.534 603.321 284.003 588.424 285.721 582.44C287.437 576.457 284.324 568.283 274.871 573.061Z" fill="#273250"/>
<path d="M284.019 604.569L278.092 587.39L273.549 587.773L275.054 584.73L267.468 594.283L271.287 579.961C271.287 579.961 267.327 582.323 264.69 583.011C262.054 583.7 258.364 583.131 258.364 583.131L266.905 579.488L272.203 574.792L274.38 575.994L275.786 579.661L275.155 581.786L277.705 579.775L297.546 588.003L284.019 604.569Z" fill="#151C30"/>
<path d="M275.077 558.192C275.077 558.192 265.53 570.914 259.686 574.396C256.296 576.416 264.247 574.396 264.247 574.396L258.525 580.494L263.792 578.054L259.838 582.17C259.838 582.17 269.569 581.256 272.154 577.293C274.739 573.329 272.002 586.59 272.002 586.59L276.512 580.494L275.803 584.304L279.301 581.103L284.724 595.822C284.724 595.822 284.766 592.803 286.328 590.114C287.674 587.799 289.934 581.722 289.934 581.722C289.782 581.265 283 571.998 284.115 566.717C285.23 561.438 281.213 553.975 275.077 558.192Z" fill="#273250"/>
<path d="M284.579 583.637L280.142 566.322L275.2 571.624L276.901 566.176L271.668 573.452L273.874 561.351C273.874 561.351 270.628 563.841 267.991 564.53C265.355 565.218 261.859 564.822 261.859 564.822L270.207 561.006L275.077 558.192L275.421 563.361L279.087 561.179L278.457 563.304L281.007 561.294L288.732 566.233L284.579 583.637Z" fill="#151C30"/>
<path d="M290.836 512.288L293.584 514.73C293.584 514.73 301.147 523.774 305.615 526.072C310.084 528.369 301.261 525.498 301.261 525.498C301.261 525.498 302.985 529.748 306.879 530.552C310.772 531.356 299.428 532.62 297.48 530.552C295.532 528.484 297.375 534.843 309.167 540.776C313.134 542.772 301.605 540.202 298.855 538.593C298.855 538.593 298.77 540.632 306.303 543.763C311.001 545.716 298.053 543.189 298.053 543.189C298.053 543.189 300.574 545.371 300.803 545.486C301.032 545.601 297.022 544.452 297.938 546.52C298.855 548.588 290.873 547.094 288.733 550.196C286.595 553.298 285.105 552.609 285.105 552.609L287.97 521.936C287.97 521.936 289.783 512.633 290.836 512.288Z" fill="#151C30"/>
<path d="M278.901 541.113C278.901 541.113 272.837 552.867 261.513 557.068C257.815 558.441 266.075 557.068 266.075 557.068L262.351 561.036C262.922 562.405 268.881 558.385 268.881 558.385L261.666 564.843C261.666 564.843 271.397 563.929 273.981 559.965C276.567 556.001 273.83 569.263 273.83 569.263L278.34 563.166L277.631 566.977L281.128 563.776L284.579 578.431C284.579 578.431 291.746 570.832 292.141 571.107C295.126 573.188 284.828 554.671 285.943 549.39C287.058 544.111 285.036 536.896 278.901 541.113Z" fill="#273250"/>
<path d="M287.147 566.252L281.339 550.265L277.016 556.296L277.901 551.184L273.549 556.952L275.552 546.589C275.552 546.589 272.306 549.079 269.67 549.767C267.034 550.455 265.002 549.139 265.002 549.139L271.886 546.244L277.349 543.429L277.099 548.599L280.766 546.416L280.136 548.542L282.686 546.531L287.146 552.674V566.252H287.147Z" fill="#151C30"/>
<path d="M294.279 542.346L294.141 541.237C294.141 541.237 307.13 548.729 314.429 550.132C321.728 551.534 307.523 550.416 307.523 550.416C307.523 550.416 310.754 554.295 316.965 554.33C323.176 554.363 305.523 557.843 302.21 556.174C298.897 554.504 302.574 560.452 321.82 564.026C328.294 565.229 309.876 564.94 305.361 563.883C305.361 563.883 305.479 565.922 317.691 567.552C325.308 568.568 304.668 568.601 304.668 568.601C304.668 568.601 308.896 570.272 309.27 570.341C309.643 570.41 303.206 570.057 304.9 571.929C306.594 573.8 293.878 573.885 290.903 577.382L290.839 570.388L284.579 550.437C284.579 550.437 290.847 541.733 292.457 541.184" fill="#151C30"/>
<path d="M280.228 528.326C280.228 528.326 272.318 538.49 265.189 542.128C261.155 544.186 269.134 542.128 269.134 542.128L264.184 547.402L268.74 545.292L265.002 549.139C265.002 549.139 273.737 548.061 275.973 544.633C278.209 541.204 275.842 552.676 275.842 552.676L279.743 547.402L279.13 550.698L282.155 547.929C282.155 547.929 284.395 555.569 285.24 554.143C286.743 551.611 288.815 548.05 288.731 547.797C288.599 547.402 286.937 540.185 287.901 535.617C288.866 531.051 285.535 524.679 280.228 528.326Z" fill="#273250"/>
<path d="M288.733 587.237L285.902 573.423C285.902 573.423 294.083 565.486 296.123 564.884L296.261 565.994L296.123 564.884C296.123 564.884 312.203 571.989 321.328 573.164C330.454 574.339 312.642 573.671 312.642 573.671C312.642 573.671 316.578 577.463 324.38 577.298C332.183 577.133 309.892 581.192 305.783 579.622C301.812 578.105 305.817 583.52 327.81 586.568V587.716C322.322 587.92 312.839 587.804 309.496 587.261C309.496 587.261 309.58 589.305 324.871 590.55C334.408 591.326 308.476 592.02 308.476 592.02C308.476 592.02 314.647 593.465 314.201 593.62C303.881 597.193 318.03 598.609 320.099 600.435C322.168 602.26 295.685 598.641 291.835 602.248C287.985 605.855 284.019 604.569 284.019 604.569L288.733 587.237Z" fill="#151C30"/>
<path d="M285.433 532.084L285.244 530.749V540.054C285.244 540.054 284.261 533.339 283.004 534.853C282.072 535.975 280.281 535.631 280.281 535.631L281.323 533.212C281.323 533.212 282.103 530.643 281.323 533.212C280.544 535.781 276.392 537.303 276.392 537.303C276.392 537.303 280.561 528.56 279.018 530.403C277.475 532.248 270.751 531.091 270.751 531.091L276.555 529.364L280.142 526.369L283.143 529.484L282.609 532.356L285.244 530.748" fill="#151C30"/>
<path d="M283.426 513.244C283.426 513.244 273.532 522.971 270.324 525.268C267.115 527.566 273.761 525.268 273.761 525.268L269.448 529.864L273.417 528.025L270.438 531.127C270.438 531.127 277.772 530.438 279.719 527.451C281.667 524.464 279.605 534.458 279.605 534.458L283.004 529.864L282.469 532.735L285.105 530.323L286.475 537.937C286.475 537.937 290.949 530.553 290.834 530.208C290.719 529.864 287.893 523.462 288.733 519.483C289.574 515.503 288.05 510.066 283.426 513.244Z" fill="#273250"/>
<path d="M286.946 512.288L283.427 522.485V518.084L286.106 511.57L286.946 512.288Z" fill="#151C30"/>
<path d="M288.733 534.546L288.397 532.095L284.788 535.235L285.244 540.054L286.946 536.074L288.733 534.546Z" fill="#151C30"/>
<path d="M299.258 571.274L291.976 574.311C291.976 574.311 293.142 575.575 294.478 575.057C298.47 573.511 299.258 571.274 299.258 571.274Z" fill="#151C30"/>
<path d="M301.597 555.287L294.076 558.916C294.076 558.916 295.62 559.423 296.957 558.905C300.949 557.358 301.597 555.287 301.597 555.287Z" fill="#151C30"/>
<path d="M321.381 497.417L310.906 522.774L316.506 516.809L315.631 526.458L322.194 511.236L321.381 497.417Z" fill="#273250"/>
<path d="M330 526.571C329.597 526.265 329.219 525.885 328.875 525.456C329.298 525.787 329.686 526.094 330 526.348V526.571Z" fill="#151C30"/>
<path d="M315.631 527.686C315.631 527.686 318.605 519.265 320.501 513.504C320.91 512.259 321.943 507.848 318.781 511.019C317.556 512.246 321.581 496.632 321.581 496.632C321.581 496.632 323.93 508.82 330 516.192V517.232C328.201 515.929 325.431 513.651 325.431 513.651L330 520.247V522.05L326.544 521.195C326.544 521.195 326.787 521.872 327.225 522.774C327.625 523.597 328.188 524.604 328.874 525.456C327.165 524.122 324.906 522.423 324.906 522.423C324.906 522.423 322.106 527.16 323.856 529.616C325.606 532.073 320.897 528.389 321.581 521.194C321.931 517.51 319.48 525.757 318.081 527.686C318.081 527.686 317.906 525.054 318.081 524.177C318.256 523.3 315.631 527.686 315.631 527.686Z" fill="#151C30"/>
<path d="M316.506 516.809L310.906 522.774L316.506 519.089V516.809Z" fill="#151C30"/>
<path d="M316.116 521.119L312.481 528.213L315.632 525.845L316.116 521.119Z" fill="#151C30"/>
<path d="M306.316 588.305C306.316 588.305 283.159 605.067 275.638 609.014C269.968 611.991 283.686 609.014 283.686 609.014L273.589 616.93L282.882 613.763L275.906 619.105C275.906 619.105 291.976 625.947 297.209 617.449C298.56 615.254 295.616 623.973 295.616 623.973L305.327 616.929L304.076 621.875L310.247 617.72L308.058 628.052C308.058 628.052 309.332 629.232 312.481 628.228C316.125 627.067 316.631 623.834 316.506 623.56C316.238 622.966 316.775 605.903 318.743 599.048C320.709 592.196 317.143 582.833 306.316 588.305Z" fill="#273250"/>
<path d="M297.193 595.668L303.261 590.288L305.754 591.666L307.365 595.865L306.643 598.299L309.564 595.997L330 604.471V608.224L316.794 624.395L310.005 604.718L304.802 605.157L306.525 601.671L297.836 612.613L302.211 596.209C302.211 596.209 297.675 598.914 294.655 599.703C291.635 600.492 287.41 599.84 287.41 599.84L297.193 595.668Z" fill="#151C30"/>
<path d="M306.552 571.275C306.552 571.275 295.617 585.847 288.922 589.835C285.039 592.148 294.147 589.835 294.147 589.835L287.592 596.82L293.625 594.025L289.096 598.74C289.096 598.74 300.243 597.693 303.203 593.153C306.164 588.613 303.029 603.803 303.029 603.803L308.195 596.82L307.383 601.184L311.388 597.518L317.601 614.377C317.601 614.377 317.649 610.92 319.438 607.839C320.98 605.187 323.569 598.227 323.569 598.227C323.394 597.703 315.628 587.089 316.904 581.04C318.181 574.993 313.58 566.445 306.552 571.275Z" fill="#273250"/>
<path d="M317.435 600.42L312.354 580.587L306.692 586.66L308.641 580.42L302.648 588.754L305.174 574.894C305.174 574.894 301.457 577.746 298.437 578.535C295.417 579.323 291.19 578.672 291.19 578.672L300.974 574.499L306.552 571.275L306.946 577.196L311.145 574.697L310.423 577.131L313.345 574.828L322.194 580.486L317.435 600.42Z" fill="#151C30"/>
<path d="M321.319 529.748C321.319 529.748 323.397 519.092 324.603 518.697L327.75 521.493C327.75 521.493 328.633 522.549 330 524.07V559.412C327.365 559.76 323.631 560.034 322.194 562.117C319.744 565.669 318.038 564.88 318.038 564.88L321.319 529.748Z" fill="#151C30"/>
<path d="M310.932 551.491C310.932 551.491 303.985 564.954 291.016 569.766C286.779 571.339 296.241 569.766 296.241 569.766L291.975 574.312C292.629 575.88 299.453 571.275 299.453 571.275L291.19 578.672C291.19 578.672 302.336 577.625 305.297 573.085C308.257 568.545 305.122 583.735 305.122 583.735L310.289 576.752L309.476 581.117L313.482 577.45L317.434 594.236C317.434 594.236 325.644 585.532 326.096 585.848C329.515 588.231 317.72 567.021 318.997 560.972C320.275 554.924 317.959 546.661 310.932 551.491Z" fill="#273250"/>
<path d="M320.377 580.507L313.724 562.195L308.772 569.103L309.787 563.247L304.802 569.854L307.096 557.984C307.096 557.984 303.379 560.836 300.359 561.625C297.339 562.413 295.012 560.906 295.012 560.906L302.896 557.589L308.474 554.365L308.868 560.287L313.067 557.787L312.346 560.222L315.267 557.919L320.377 564.955V580.507H320.377Z" fill="#151C30"/>
<path d="M326.459 551.794L328.547 553.125L328.389 551.854C328.389 551.854 328.987 552.198 330 552.757V590.551C327.722 591.21 325.699 592.056 324.679 593.256L324.606 585.244L317.435 562.392C317.435 562.392 324.615 552.423 326.459 551.794Z" fill="#151C30"/>
<path d="M312.452 537.067C312.452 537.067 303.392 548.708 295.226 552.875C290.606 555.232 299.745 552.875 299.745 552.875L294.076 558.916L299.294 556.499L295.012 560.906C295.012 560.906 305.017 559.671 307.579 555.744C310.14 551.817 307.428 564.957 307.428 564.957L311.897 558.916L311.194 562.691L314.659 559.52C314.659 559.52 317.224 568.271 318.194 566.638C319.916 563.737 322.288 559.659 322.192 559.369C322.041 558.916 320.137 550.65 321.242 545.418C322.346 540.187 318.531 532.888 312.452 537.067Z" fill="#273250"/>
<path d="M322.194 604.543L318.952 588.721C318.952 588.721 326.935 580.976 330 579.244V620.269C328.018 620.564 326.502 621.029 325.747 621.736C321.337 625.868 316.794 624.395 316.794 624.395L322.194 604.543Z" fill="#151C30"/>
<path d="M318.413 541.371L318.197 539.841V550.5C318.197 550.5 317.071 542.808 315.631 544.541C314.563 545.827 312.512 545.433 312.512 545.433L313.706 542.662C313.706 542.662 314.599 539.72 313.706 542.662C312.813 545.604 308.058 547.348 308.058 547.348C308.058 547.348 312.833 537.333 311.065 539.446C309.298 541.558 301.597 540.233 301.597 540.233L308.246 538.255L312.354 534.825L315.791 538.393L315.178 541.683L318.197 539.84" fill="#151C30"/>
<path d="M316.115 519.791C316.115 519.791 304.782 530.932 301.107 533.563C297.432 536.196 305.045 533.563 305.045 533.563L300.105 538.827L304.651 536.722L301.239 540.274C301.239 540.274 309.639 539.485 311.869 536.064C314.101 532.643 311.738 544.09 311.738 544.09L315.632 538.827L315.02 542.116L318.038 539.353L319.608 548.074C319.608 548.074 324.732 539.616 324.601 539.221C324.47 538.826 321.232 531.494 322.195 526.935C323.156 522.379 321.412 516.151 316.115 519.791Z" fill="#273250"/>
<path d="M320.148 518.697L316.115 530.376V525.335L319.184 517.873L320.148 518.697Z" fill="#151C30"/>
<path d="M322.194 544.19L321.81 541.383L317.674 544.979L318.197 550.499L320.148 545.941L322.194 544.19Z" fill="#151C30"/>
<path d="M241.356 615.959H237.116C237.116 615.959 234.704 614.526 234.535 610.478C234.411 607.513 234.841 610.865 236.67 612.379C237.561 613.117 236.084 610.927 236.057 607.226C236.045 605.601 236.534 603.738 237.339 601.64C237.618 600.913 240.041 605.688 239.867 610.813C239.867 610.813 240.909 607.569 240.687 604.66C240.464 601.752 239.85 599.066 239.906 598.62C240.027 597.665 244.145 602.2 244.034 608.8C243.923 615.4 244.704 610.254 245.373 609.023C246.043 607.793 247.246 606.987 246.712 605.108C246.49 604.324 247.902 606.608 248.275 610.253C248.721 614.616 246.043 615.959 246.043 615.959H241.356V615.959Z" fill="#F88063"/>
<path opacity="0.7" d="M245.739 610.583C245.978 612.402 245.291 614.317 243.878 614.585C243.543 614.648 243.261 613.888 243.19 612.824C243.033 610.468 241.08 609.069 241.42 609.913C242.127 611.671 240.437 613.844 240.426 614.356C240.177 614.143 239.621 613.565 239.332 612.096C239.178 611.311 238.11 609.913 238.11 609.913C237.618 611.193 237.758 612.789 238.002 614.021L237.999 614.009C237.988 613.951 237.073 613.935 236.042 612.824C235.011 611.713 236.462 615.097 238.291 615.965L238.53 615.959L245.08 615.982C248.325 613.8 245.619 609.669 245.739 610.583Z" fill="#FCE1D9"/>
<path d="M250.257 616.531C250.257 617.064 249.826 617.496 249.294 617.496H243.121C242.59 617.496 242.159 617.064 242.159 616.531C242.159 615.998 242.589 615.566 243.121 615.566H249.294C249.826 615.567 250.257 615.998 250.257 616.531Z" fill="#0B111E"/>
<path d="M241.619 616.531C241.619 617.064 241.189 617.496 240.657 617.496H234.484C233.952 617.496 233.521 617.064 233.521 616.531C233.521 615.998 233.952 615.566 234.484 615.566H240.657C241.188 615.567 241.619 615.998 241.619 616.531Z" fill="#0B111E"/>
<path d="M246.208 617.496C246.208 618.029 245.778 618.461 245.246 618.461H239.072C238.541 618.461 238.11 618.029 238.11 617.496C238.11 616.963 238.541 616.531 239.072 616.531H245.246C245.777 616.531 246.208 616.963 246.208 617.496Z" fill="#0B111E"/>
<path opacity="0.5" d="M261.262 585.442L254.813 589.195L260.028 589.271L254.813 593.713L262.701 593.256C262.701 593.256 255.195 598.237 252.827 599.153C252.827 599.153 258.851 597.779 261.262 595.823C263.673 593.866 263.903 592.116 263.903 592.116L257.736 592.298L262.299 588.025L256.896 588.511L261.262 585.442Z" fill="#F88063"/>
<path opacity="0.5" d="M271.726 593.256L269.535 595.169L268.212 599.153L275.286 594.236V599.764L279.384 595.186L275.764 597.303L275.999 592.298L269.587 597.303L271.726 593.256Z" fill="#F88063"/>
<path opacity="0.5" d="M264.05 580.08C264.05 580.08 272.008 576.764 272.733 574.597C273.065 573.605 274.229 579.244 274.229 581.689C274.229 582.378 277.445 578.256 277.445 578.256V581.536L280.142 579.755L284.425 590.288L280.958 578.625L278.092 579.544V576.387L275.248 578.256L273.502 573.228C273.502 573.228 268.125 577.966 264.05 580.08Z" fill="#F88063"/>
<path opacity="0.5" d="M295.616 585.442L290.66 589.68L295.012 589.348L291.652 593.79L295.012 593.256L291.976 597.357C291.976 597.357 295.777 596.164 297 595.015L294.632 595.245L296.423 592.116L293.562 592.298L296.007 588.511H293.181L295.616 585.442Z" fill="#F88063"/>
<path opacity="0.5" d="M276.075 560.398L275.199 565.797L279.087 561.178L278.879 564.955L281.84 563.097L285.105 574.656L283.004 561.603L279.583 562.925V559.283L276.075 562.972V560.398Z" fill="#F88063"/>
<path opacity="0.5" d="M283.135 611.29L277.956 614.378L284.578 612.824L278.092 618.46L285.432 620.25L280.156 617.953L286.401 612.036L282.063 612.553L283.135 611.29Z" fill="#F88063"/>
<path opacity="0.5" d="M279.229 595.27L277.956 607.9L280.018 594.804L279.229 595.27Z" fill="#F88063"/>
<path opacity="0.5" d="M287.593 602.752C287.49 602.846 276.623 609.336 276.623 609.336L285.828 607.9L283.135 611.289L287.409 607.222L280.385 607.9L287.593 602.752Z" fill="#F88063"/>
<path opacity="0.5" d="M267.468 569.052C267.514 569.205 262.014 573.228 262.014 573.228L266.98 572.137L263.084 577.383L269.448 570.915L265.003 571.624L267.468 569.052Z" fill="#F88063"/>
<path opacity="0.5" d="M269.448 553.658L265.53 556.033L267.489 555.726L264.618 559.898L270.569 556.952C270.569 556.952 264.541 563.567 265.002 563.226C265.17 563.101 272.173 558.442 272.173 558.442L269.448 559.284L271.6 555.918L266.597 558.191L268.708 554.841L269.448 553.658Z" fill="#F88063"/>
<path opacity="0.5" d="M277.693 543.913L277.349 549.599L280.705 544.889L280.136 548.541L284.787 544.233L281.323 546.612V543.429L277.956 546.514L277.693 543.913Z" fill="#F88063"/>
<path d="M229.568 621.399C229.44 621.271 255.349 621.399 255.349 621.399C255.349 621.399 258.729 622.49 257.469 622.605C256.208 622.72 253.688 623.179 253.688 623.179L256.323 623.467H245.094C245.094 623.467 234.955 623.926 235.699 623.467C236.443 623.007 239.708 622.535 239.708 622.535C239.708 622.535 230.656 622.49 229.568 621.399Z" fill="#3F2C36"/>
<g opacity="0.1">
<path d="M235.813 600.376C236.958 597.849 238.104 593.943 238.104 590.956C238.104 584.752 234.438 581.995 231.229 577.17C224.583 566.831 228.824 557.016 235.699 547.596C242.345 538.176 243.659 529.355 230.771 514.216C233.292 516.054 246.352 519.001 248.79 526.013C251.854 534.825 246.429 538.949 244.596 544.233C242.762 548.829 237.112 553.137 237.571 558.192C238.258 564.855 249.104 566.372 250.25 572.116C251.396 578.779 245.667 584.293 244.521 590.266C243.604 595.551 247.5 601.984 244.75 606.579C245.438 603.592 246.354 598.997 243.146 597.159C239.938 595.091 236.958 598.538 236.271 600.376" fill="#F4DFBB"/>
</g>
<g opacity="0.1">
<path d="M235.125 542.707C242.688 533.212 236.385 524.237 229.625 520.42C232.604 523.637 235.125 527.729 236.042 532.095C236.5 533.703 236.407 541.185 235.125 542.707Z" fill="#F4DFBB"/>
</g>
<g opacity="0.1">
<path d="M248.109 564.409C245.839 565.041 242.992 563.356 242.304 562.264C240.685 559.693 239.724 557.266 240.776 554.606C243.221 548.422 250.079 544.145 250.706 540.054C250.095 544.956 246.429 548.785 244.29 552.921C242.304 556.75 242.915 563.337 248.109 564.409Z" fill="#F4DFBB"/>
</g>
<g clip-path="url(#clip1_262_18)">
<path d="M322.051 352.332C322.051 352.145 322.05 351.958 322.05 351.771C322.047 350.55 319.554 350.556 319.557 351.778C319.558 351.964 319.558 352.151 319.559 352.338C319.562 353.56 322.054 353.553 322.051 352.332Z" fill="#E4DDCC"/>
<path d="M106.621 349.117C105.013 349.121 105.018 351.015 106.625 351.011C108.233 351.007 108.228 349.113 106.621 349.117Z" fill="#E4DDCC"/>
<path d="M294.204 346.966C292.597 346.97 292.601 348.863 294.209 348.859C295.816 348.855 295.812 346.962 294.204 346.966Z" fill="#E4DDCC"/>
<path d="M121.501 335.889C120.854 335.412 120.046 335.098 119.141 335.056C118.463 335.025 117.896 335.515 117.897 336.006C117.898 336.548 118.467 336.919 119.145 336.95C118.997 336.943 119.337 337.004 119.227 336.967C119.354 337.011 119.471 337.071 119.586 337.128C119.414 337.041 119.696 337.199 119.741 337.233C120.893 338.084 122.653 336.741 121.501 335.889Z" fill="#E4DDCC"/>
<path d="M233.708 372.929C233.462 372.93 233.216 372.931 232.97 372.931C231.363 372.935 231.368 374.829 232.975 374.825C233.221 374.825 233.467 374.824 233.713 374.823C235.32 374.819 235.316 372.925 233.708 372.929Z" fill="#E4DDCC"/>
<path d="M288.355 370.549C288.108 370.549 287.863 370.55 287.616 370.551C286.009 370.555 286.013 372.449 287.621 372.445C287.868 372.444 288.113 372.443 288.36 372.443C289.967 372.439 289.963 370.545 288.355 370.549Z" fill="#E4DDCC"/>
<path d="M192.781 341.993C192.752 341.124 191.906 340.544 190.793 340.49C190.115 340.456 189.547 340.95 189.549 341.44C189.55 341.983 190.12 342.35 190.797 342.384C190.525 342.37 190.373 342.225 190.286 342.053C190.401 342.28 190.286 341.93 190.288 341.999C190.327 343.218 192.82 343.215 192.781 341.993Z" fill="#E4DDCC"/>
<path d="M112.348 369.129C112.352 368.991 112.28 369.417 112.331 369.235C112.368 369.144 112.354 369.165 112.29 369.298C112.211 369.42 112.014 369.507 111.841 369.515C112.518 369.478 113.086 369.108 113.085 368.565C113.083 368.075 112.514 367.584 111.836 367.621C110.723 367.681 109.88 368.264 109.856 369.135C109.822 370.357 112.315 370.348 112.348 369.129Z" fill="#E4DDCC"/>
<path d="M159.096 364.698C158.849 364.699 158.604 364.699 158.357 364.7C156.749 364.704 156.754 366.598 158.362 366.594C158.609 366.593 158.854 366.592 159.101 366.592C160.708 366.588 160.703 364.694 159.096 364.698Z" fill="#E4DDCC"/>
<path d="M100.027 370.457C98.4195 370.461 98.4242 372.355 100.032 372.351C101.639 372.347 101.634 370.453 100.027 370.457Z" fill="#E4DDCC"/>
<path d="M136.965 374.854C135.358 374.858 135.362 376.752 136.97 376.748C138.577 376.744 138.572 374.85 136.965 374.854Z" fill="#E4DDCC"/>
<path d="M321.593 372.149C321.056 372.152 320.491 372.179 320.086 372.487C319.661 372.813 319.612 373.228 319.612 373.662C319.613 374.883 322.105 374.877 322.104 373.656C322.104 373.585 322.162 373.201 322.086 373.513C321.911 373.856 321.628 374.034 321.237 374.049C321.355 374.04 321.478 374.044 321.597 374.043C323.205 374.037 323.201 372.143 321.593 372.149Z" fill="#E4DDCC"/>
<g opacity="0.4">
<path d="M183.212 262.227C181.604 262.231 181.609 264.124 183.216 264.12C184.824 264.116 184.819 262.222 183.212 262.227Z" fill="#E4DDCC"/>
<path d="M198.092 248.999C197.445 248.521 196.637 248.208 195.732 248.166C195.053 248.135 194.486 248.625 194.488 249.116C194.489 249.657 195.058 250.029 195.736 250.06C195.588 250.053 195.928 250.113 195.818 250.077C195.945 250.121 196.062 250.18 196.176 250.238C196.005 250.151 196.286 250.309 196.332 250.343C197.484 251.195 199.244 249.852 198.092 248.999Z" fill="#E4DDCC"/>
<path d="M310.299 286.04C310.053 286.04 309.807 286.041 309.561 286.042C307.954 286.046 307.958 287.94 309.566 287.936C309.812 287.935 310.058 287.934 310.304 287.934C311.911 287.93 311.906 286.036 310.299 286.04Z" fill="#E4DDCC"/>
<path d="M269.371 255.102C269.343 254.233 268.497 253.653 267.383 253.599C266.705 253.565 266.138 254.059 266.14 254.549C266.141 255.092 266.711 255.459 267.388 255.493C267.116 255.479 266.963 255.335 266.877 255.163C266.991 255.389 266.876 255.04 266.879 255.109C266.918 256.327 269.411 256.325 269.371 255.102Z" fill="#E4DDCC"/>
<path d="M188.939 282.239C188.943 282.101 188.871 282.528 188.922 282.345C188.959 282.254 188.945 282.275 188.881 282.408C188.801 282.53 188.604 282.617 188.432 282.626C189.108 282.589 189.677 282.218 189.676 281.676C189.674 281.186 189.105 280.695 188.427 280.732C187.314 280.792 186.471 281.375 186.446 282.245C186.413 283.467 188.906 283.458 188.939 282.239Z" fill="#E4DDCC"/>
<path d="M235.687 277.808C235.44 277.809 235.195 277.81 234.948 277.81C233.34 277.814 233.345 279.708 234.952 279.704C235.2 279.703 235.444 279.703 235.691 279.702C237.299 279.698 237.294 277.804 235.687 277.808Z" fill="#E4DDCC"/>
<path d="M176.618 283.567C175.01 283.571 175.015 285.465 176.623 285.461C178.23 285.457 178.225 283.563 176.618 283.567Z" fill="#E4DDCC"/>
<path d="M213.556 287.965C211.948 287.969 211.953 289.862 213.561 289.858C215.168 289.854 215.163 287.961 213.556 287.965Z" fill="#E4DDCC"/>
</g>
<g opacity="0.1">
<path d="M137.323 211.188C135.715 211.192 135.72 213.086 137.328 213.082C138.935 213.078 138.932 211.184 137.323 211.188Z" fill="#E4DDCC"/>
<path d="M324.906 209.037C323.299 209.041 323.304 210.935 324.911 210.931C326.519 210.927 326.515 209.033 324.906 209.037Z" fill="#E4DDCC"/>
<path d="M152.203 197.96C151.556 197.483 150.748 197.169 149.843 197.128C149.165 197.097 148.598 197.586 148.599 198.078C148.6 198.619 149.169 198.99 149.847 199.022C149.699 199.014 150.039 199.075 149.929 199.038C150.056 199.083 150.173 199.142 150.288 199.2C150.116 199.113 150.398 199.27 150.443 199.305C151.596 200.155 153.355 198.813 152.203 197.96Z" fill="#E4DDCC"/>
<path d="M264.41 235.001C264.164 235.001 263.919 235.002 263.673 235.003C262.065 235.007 262.07 236.9 263.677 236.896C263.923 236.896 264.169 236.895 264.415 236.895C266.024 236.891 266.019 234.997 264.41 235.001Z" fill="#E4DDCC"/>
<path d="M319.057 232.62C318.81 232.621 318.566 232.621 318.318 232.622C316.711 232.626 316.716 234.52 318.323 234.516C318.57 234.515 318.815 234.515 319.062 234.514C320.671 234.51 320.666 232.616 319.057 232.62Z" fill="#E4DDCC"/>
<path d="M223.483 204.064C223.454 203.195 222.609 202.615 221.495 202.561C220.817 202.527 220.25 203.021 220.251 203.511C220.253 204.054 220.823 204.421 221.5 204.455C221.227 204.441 221.075 204.297 220.988 204.124C221.103 204.351 220.988 204.002 220.991 204.071C221.031 205.289 223.524 205.286 223.483 204.064Z" fill="#E4DDCC"/>
<path d="M143.05 231.2C143.054 231.062 142.982 231.489 143.033 231.306C143.07 231.215 143.056 231.236 142.992 231.369C142.913 231.491 142.716 231.578 142.543 231.587C143.22 231.55 143.788 231.18 143.787 230.637C143.786 230.147 143.216 229.656 142.538 229.693C141.425 229.753 140.582 230.336 140.558 231.206C140.524 232.428 143.017 232.42 143.05 231.2Z" fill="#E4DDCC"/>
<path d="M189.798 226.769C189.551 226.77 189.306 226.77 189.059 226.771C187.452 226.775 187.456 228.669 189.064 228.665C189.311 228.664 189.556 228.664 189.803 228.663C191.411 228.659 191.407 226.765 189.798 226.769Z" fill="#E4DDCC"/>
<path d="M130.73 232.529C129.122 232.533 129.127 234.426 130.734 234.422C132.342 234.418 132.338 232.524 130.73 232.529Z" fill="#E4DDCC"/>
<path d="M167.667 236.925C166.06 236.929 166.064 238.823 167.672 238.819C169.279 238.815 169.276 236.921 167.667 236.925Z" fill="#E4DDCC"/>
</g>
<g opacity="0.1">
<path d="M125.259 236.101C125.259 235.914 125.259 235.727 125.258 235.54C125.255 234.319 122.762 234.325 122.765 235.547C122.766 235.734 122.766 235.92 122.767 236.107C122.77 237.329 125.262 237.322 125.259 236.101Z" fill="#E4DDCC"/>
<path d="M97.4122 230.735C95.8048 230.739 95.8095 232.633 97.417 232.628C99.0244 232.624 99.0197 230.731 97.4122 230.735Z" fill="#E4DDCC"/>
<path d="M36.9161 256.698C36.6702 256.699 36.4242 256.7 36.1783 256.7C34.5708 256.704 34.5756 258.598 36.183 258.594C36.429 258.594 36.6749 258.593 36.9209 258.592C38.5283 258.588 38.5236 256.694 36.9161 256.698Z" fill="#E4DDCC"/>
<path d="M91.5631 254.318C91.3161 254.318 91.0712 254.319 90.8242 254.32C89.2167 254.324 89.2215 256.218 90.8289 256.214C91.076 256.213 91.3208 256.212 91.5678 256.212C93.1753 256.208 93.1706 254.314 91.5631 254.318Z" fill="#E4DDCC"/>
<path d="M124.801 255.919C124.264 255.921 123.699 255.948 123.294 256.256C122.869 256.582 122.82 256.998 122.82 257.431C122.821 258.652 125.313 258.646 125.312 257.425C125.312 257.354 125.37 256.97 125.294 257.282C125.119 257.625 124.836 257.803 124.445 257.818C124.563 257.809 124.686 257.813 124.805 257.812C126.413 257.806 126.409 255.912 124.801 255.919Z" fill="#E4DDCC"/>
</g>
<path d="M200.705 354.974L197.245 357.682L200.976 355.354L201.166 358.9L201.557 355.441L205.082 357.662L201.592 355.029L206.699 354.678L201.784 354.69L205.067 351.701L201.361 354.474L201.145 350.484L200.859 354.446L197.23 351.721L200.55 354.693L195.612 354.705L200.705 354.974Z" fill="#FEF9C8"/>
<path d="M12.6181 369.472L9.15847 372.181L12.8894 369.853L13.0799 373.399L13.469 369.938L16.9952 372.161L13.5046 369.527L18.613 369.176L13.6964 369.189L16.9804 366.199L13.2738 368.972L13.0589 364.982L12.7719 368.944L9.14359 366.218L12.4634 369.192L7.52586 369.204L12.6181 369.472Z" fill="#FEF9C8"/>
<path d="M68.9205 321.449L66.3354 323.474L69.1228 321.733L69.2657 324.385L69.5561 321.798L72.1914 323.459L69.583 321.491L73.3989 321.229L69.7253 321.239L72.1803 319.005L69.4092 321.075L69.25 318.095L69.0347 321.054L66.3243 319.02L68.8036 321.241L65.1145 321.25L68.9205 321.449Z" fill="#FEF9C8"/>
<path d="M274.902 306.957L272.317 308.98L275.105 307.241L275.248 309.892L275.537 307.305L278.172 308.965L275.565 306.998L279.381 306.737L275.707 306.746L278.161 304.512L275.39 306.582L275.232 303.602L275.017 306.562L272.306 304.526L274.786 306.748L271.095 306.757L274.902 306.957Z" fill="#FEF9C8"/>
<path d="M46.9732 295.053C45.9019 295.056 45.9051 296.319 46.9763 296.316C48.0476 296.313 48.0445 295.051 46.9732 295.053Z" fill="#E4DDCC"/>
<path d="M63.9758 301.745C62.9034 301.747 62.9065 303.01 63.9789 303.007C65.0513 303.005 65.0481 301.742 63.9758 301.745Z" fill="#E4DDCC"/>
<path d="M83.9467 277.074C83.9532 276.995 84.1756 276.88 84.2496 276.813C84.5381 276.559 84.6538 276.28 84.6829 275.95C84.7528 275.137 83.0911 275.146 83.0211 275.954C83.0136 276.034 82.7923 276.149 82.7182 276.216C82.4308 276.47 82.3141 276.748 82.285 277.078C82.215 277.892 83.8768 277.882 83.9467 277.074Z" fill="#E4DDCC"/>
<path d="M110.712 385.242C110.465 385.242 110.22 385.243 109.973 385.244C108.902 385.246 108.905 386.509 109.976 386.506C110.223 386.506 110.468 386.505 110.715 386.504C111.788 386.502 111.784 385.239 110.712 385.242Z" fill="#E4DDCC"/>
<path d="M96.0244 381.42C96.0239 381.233 96.0234 381.046 96.023 380.858C96.0209 380.044 94.3592 380.049 94.3612 380.863C94.3617 381.049 94.3621 381.236 94.3626 381.424C94.3646 382.239 96.0264 382.235 96.0244 381.42Z" fill="#E4DDCC"/>
<path d="M105.307 328.087C105.321 327.929 105.91 327.954 105.656 327.87C105.495 327.817 105.373 327.73 105.247 327.641C104.465 327.087 103.289 327.981 104.074 328.537C104.58 328.895 105.227 329.224 105.952 329.114C106.627 329.011 106.925 328.563 106.968 328.082C107.042 327.27 105.381 327.279 105.307 328.087Z" fill="#E4DDCC"/>
<path d="M41.3732 381.556C41.3493 380.864 40.6846 380.411 39.8004 380.367C38.7301 380.314 38.7399 381.578 39.8036 381.63C39.8701 381.633 39.7226 381.586 39.6936 381.53C39.7783 381.698 39.7103 381.528 39.7114 381.559C39.7389 382.373 41.4007 382.371 41.3732 381.556Z" fill="#E4DDCC"/>
<path d="M157.77 301.511C157.523 301.511 157.278 301.512 157.031 301.513C155.959 301.515 155.962 302.778 157.034 302.775C157.281 302.775 157.526 302.774 157.773 302.773C158.844 302.771 158.841 301.508 157.77 301.511Z" fill="#E4DDCC"/>
<path d="M51.5122 338.252C51.2652 338.252 51.0204 338.253 50.7733 338.254C49.7009 338.256 49.7041 339.519 50.7765 339.516C51.0235 339.516 51.2683 339.515 51.5154 339.514C52.5867 339.512 52.5835 338.249 51.5122 338.252Z" fill="#E4DDCC"/>
<path d="M55.1945 334.314C54.1221 334.317 54.1253 335.58 55.1977 335.577C56.27 335.574 56.2669 334.312 55.1945 334.314Z" fill="#E4DDCC"/>
<path d="M110.495 298.262C110.003 298.263 109.51 298.264 109.019 298.266C107.947 298.268 107.95 299.531 109.022 299.528C109.514 299.527 110.007 299.526 110.498 299.524C111.571 299.522 111.568 298.259 110.495 298.262Z" fill="#E4DDCC"/>
<path d="M102.35 350.095C102.103 349.907 101.857 349.722 101.61 349.535C100.85 348.96 99.6774 349.856 100.437 350.431C100.684 350.618 100.929 350.804 101.177 350.991C101.937 351.564 103.109 350.669 102.35 350.095Z" fill="#E4DDCC"/>
<path d="M179.995 61.389C180.075 61.3803 180.176 61.2728 180.052 61.1076C180.048 61.1017 180.043 61.0966 180.039 61.0907C180.019 61.1161 180.009 61.1364 179.994 61.1584C179.995 61.2361 179.995 61.3096 179.995 61.389Z" fill="#F88063"/>
<path d="M179.996 61.3889C179.995 61.3096 179.995 61.2352 179.995 61.1592C179.889 61.3284 179.928 61.3959 179.996 61.3889Z" fill="#F88063"/>
<path d="M180.039 61.0923C180.024 61.0721 180.01 61.0518 179.994 61.0324C179.994 61.0747 179.994 61.1178 179.995 61.16C180.009 61.1372 180.019 61.1177 180.039 61.0923Z" fill="#F88063"/>
</g>
</g>
<defs>
<linearGradient id="paint0_linear_262_18" x1="165" y1="0" x2="165" y2="411" gradientUnits="userSpaceOnUse">
<stop stop-color="#13191D"/>
<stop offset="1" stop-color="#17122A"/>
</linearGradient>
<linearGradient id="paint1_linear_262_18" x1="165" y1="406" x2="165" y2="635.386" gradientUnits="userSpaceOnUse">
<stop stop-color="#17122A"/>
<stop offset="0.1607" stop-color="#271938"/>
<stop offset="0.1705" stop-color="#281939"/>
<stop offset="0.2641" stop-color="#381F40"/>
<stop offset="0.4247" stop-color="#5C2D51"/>
<stop offset="0.4779" stop-color="#6C3A58"/>
<stop offset="0.5818" stop-color="#965B69"/>
<stop offset="0.7022" stop-color="#CD8780"/>
<stop offset="0.7551" stop-color="#D5978B"/>
<stop offset="0.858" stop-color="#E8C0A8"/>
<stop offset="0.889" stop-color="#EFCEB1"/>
</linearGradient>
<clipPath id="clip0_262_18">
<rect width="330" height="715" fill="white"/>
</clipPath>
<clipPath id="clip1_262_18">
<rect width="797.62" height="424.236" fill="white" transform="translate(609.676 393.234) rotate(179.857)"/>
</clipPath>
</defs>
</svg>
