<?xml version="1.0" encoding="UTF-8" standalone="no"?>
<!DOCTYPE svg PUBLIC "-//W3C//DTD SVG 1.1//EN" "http://www.w3.org/Graphics/SVG/1.1/DTD/svg11.dtd">
<svg width="100%" height="100%" viewBox="0 0 39 39" version="1.1" xmlns="http://www.w3.org/2000/svg" xmlns:xlink="http://www.w3.org/1999/xlink" xml:space="preserve" xmlns:serif="http://www.serif.com/" style="fill-rule:evenodd;clip-rule:evenodd;stroke-linejoin:round;stroke-miterlimit:2;">
    <g transform="matrix(1.9392,0,0,1.9392,-4.07233,-3.87841)">
        <path d="M11.7,2L10.9,2L11.1,4L12.4,4C16.4,4.3 19.7,7.5 19.9,11.6C20.1,16 16.7,19.8 12.3,20L11.1,20L11,22L12.7,22C18.1,21.6 22.2,17 22,11.6C21.8,6.5 17.7,2.5 12.7,2.1L12.2,2.1C12,2 11.9,2 11.7,2ZM8.2,2.7C7.7,3 7.2,3.2 6.7,3.5L7.8,5.2C8.1,5 8.5,4.8 8.9,4.6L8.2,2.7ZM4.5,5.4C4.1,5.8 3.8,6.3 3.5,6.7L5.2,7.7C5.4,7.4 5.7,7.1 6,6.7L4.5,5.4ZM15.4,8.4L10.8,13.6L8.1,11.5L7,13.2L11.2,16.4L17,9.8L15.4,8.4ZM2.4,9C2.2,9.5 2.1,10.1 2.1,10.6L4.1,10.9C4.2,10.5 4.2,10 4.4,9.6L2.4,9ZM4.1,13L2.1,13.2L2.1,13.5C2.2,13.9 2.3,14.4 2.4,14.8L4.3,14.2C4.2,13.9 4.1,13.5 4.1,13.1L4.1,13ZM5.2,16.2L3.5,17.3C3.8,17.8 4.1,18.2 4.5,18.6L6,17.3C5.7,16.9 5.4,16.6 5.2,16.2ZM7.8,18.8L6.7,20.5C7.2,20.8 7.7,21 8.2,21.3L9,19.5C8.5,19.2 8.1,19 7.8,18.8Z" style="fill:rgb(131,134,139);fill-rule:nonzero;"/>
    </g>
</svg>
