<?xml version="1.0" encoding="UTF-8" standalone="no"?>
<!DOCTYPE svg PUBLIC "-//W3C//DTD SVG 1.1//EN" "http://www.w3.org/Graphics/SVG/1.1/DTD/svg11.dtd">
<svg width="100%" height="100%" viewBox="0 0 950 950" version="1.1" xmlns="http://www.w3.org/2000/svg" xmlns:xlink="http://www.w3.org/1999/xlink" xml:space="preserve" xmlns:serif="http://www.serif.com/" style="fill-rule:evenodd;clip-rule:evenodd;stroke-linejoin:round;stroke-miterlimit:2;">
    <g transform="matrix(0.546525,0,0,0.546525,-1092.47,-154.778)">
        <path d="M3150.4,665.12C3400.59,774.097 3575.55,1023.6 3575.55,1313.97C3575.55,1704.71 3258.8,2021.46 2868.06,2021.46C2477.32,2021.46 2160.57,1704.71 2160.57,1313.97C2160.57,1028.66 2329.51,782.805 2572.75,670.938C2618.15,650.061 2650.15,616.604 2623.84,555.642C2609.73,522.933 2603.21,523.156 2645.76,529.659C2671.99,533.679 2703.15,551.761 2724.31,570.086C2735.9,580.118 2743.61,574.467 2744.67,562.244C2751.55,481.609 2826.76,408.013 2899.84,357.574C2932.9,334.768 2945.97,327.844 2939.16,371.359C2931.14,422.303 2943.3,469.248 2963.97,509.272C3003.63,586.061 3072.92,631.36 3150.4,665.12Z" style="fill:url(#_Linear1);"/>
        <path d="M2841.15,709.814C2965.39,709.814 3074.96,775.316 3139.96,875.063C3159.06,904.382 3160.94,939.817 3145.05,971.168C3129.17,1002.51 3100.03,1020.82 3066.08,1020.82L2616.2,1020.82C2582.26,1020.82 2553.12,1002.51 2537.24,971.168C2521.35,939.817 2523.23,904.382 2542.33,875.063C2607.33,775.316 2716.9,709.814 2841.15,709.814Z" style="fill:url(#_Linear2);"/>
        <path d="M2835.43,1959.95C2984.45,1960.14 3109.19,1867.38 3154.42,1735.6C3173.05,1681.33 3178.52,1613.49 3165.39,1555.6C3142.07,1452.66 3115.92,1311.68 3145.02,1219.66C3146.3,1215.59 3144.41,1213.03 3140.34,1214.07C3108.57,1222.26 3059.12,1247.69 3044.73,1290.49C3001.19,1419.93 2904.7,1422.93 2949.09,1280.71C2989.47,1151.28 2905.87,1076.79 2802.6,1029.26C2798.06,1027.18 2794.89,1030.11 2797.06,1034.62C2842.09,1127.76 2730.72,1240.9 2663.23,1336.46C2625.13,1390.39 2638.03,1425.29 2640.01,1496C2640.44,1511.5 2628.37,1519.44 2619.55,1495.95C2603.86,1454.09 2569.76,1420.26 2531.02,1411.77C2526.45,1410.77 2522.98,1415.64 2525.37,1419.7C2539.15,1443.14 2528.48,1480.55 2522.14,1507.61C2491.26,1639.38 2465.16,1740.53 2578.88,1858.89C2638.77,1921.23 2724.04,1959.82 2835.43,1959.95ZM2757.06,1588.35C2802.35,1634.93 2873.47,1655.92 2944.14,1702.63C3002.07,1740.89 3021.12,1825.3 2968.49,1872.58C2853.11,1976.23 2699.44,1841.67 2670.26,1712.53C2663.39,1682.12 2660.69,1649.91 2661.06,1617.76C2661.65,1563.39 2667.32,1498.42 2696.95,1452.07C2718.04,1419.09 2716.9,1435.88 2714.09,1455.02C2706.89,1504.01 2721.6,1551.91 2757.06,1588.35Z" style="fill:url(#_Linear3);"/>
        <path d="M2867.93,680.336C2992.17,680.336 3101.74,745.838 3166.74,845.586C3185.84,874.905 3187.72,910.34 3171.82,941.686C3155.95,973.037 3126.81,991.342 3092.86,991.342L2896.86,991.342C2893.99,991.342 2891.62,989.151 2891.4,986.286L2878.57,811.385C2878.13,805.541 2873.79,800.733 2867.93,800.733C2862.07,800.733 2857.72,805.581 2857.28,811.385L2844.45,986.286C2844.23,989.151 2841.86,991.342 2839,991.342L2642.99,991.342C2609.04,991.342 2579.9,973.037 2564.02,941.686C2548.13,910.34 2550.01,874.905 2569.11,845.586C2634.11,745.838 2743.68,680.336 2867.93,680.336ZM2877.78,719.692C2877.78,706.696 2858.07,706.681 2858.07,719.692L2858.07,765.918C2858.07,778.959 2877.78,778.944 2877.78,765.918L2877.78,719.692ZM3119.07,858.989L3079.01,882.117C3067.74,888.62 3077.59,905.676 3088.87,899.173L3128.91,876.06C3140.19,869.566 3130.31,852.496 3119.07,858.989ZM3070.03,799.346L3037.34,831.995C3028.13,841.229 3042.07,855.153 3051.27,845.963L3083.96,813.254C3093.17,804.049 3079.23,790.141 3070.03,799.346ZM3007.24,754.384L2984.13,794.399C2977.59,805.68 2994.66,815.544 3001.17,804.277L3024.28,764.233C3030.82,752.966 3013.73,743.112 3007.24,754.384ZM2934.92,727.211L2922.97,771.891C2919.6,784.451 2938.65,789.551 2942.02,776.977L2953.96,732.322C2957.34,719.747 2938.3,714.661 2934.92,727.211ZM2616.78,858.989C2605.56,852.496 2595.65,869.566 2606.93,876.06L2646.98,899.158C2658.26,905.676 2668.11,888.62 2656.84,882.102L2616.78,858.989ZM2665.82,799.331C2656.63,790.141 2642.66,804.049 2651.89,813.254L2684.58,845.948C2693.78,855.153 2707.71,841.229 2698.51,831.995L2665.82,799.331ZM2728.61,754.384C2722.12,743.112 2705.03,752.966 2711.57,764.233L2734.68,804.277C2741.19,815.544 2758.26,805.68 2751.75,794.399L2728.61,754.384ZM2800.92,727.211C2797.55,714.661 2778.51,719.747 2781.88,732.322L2793.83,776.977C2797.2,789.551 2816.25,784.451 2812.88,771.891L2800.92,727.211Z" style="fill:white;fill-rule:nonzero;"/>
        <path d="M2868.1,1931.85C3017.1,1932.04 3144.77,1839.28 3194.14,1707.5C3214.47,1653.23 3222.1,1585.45 3210.77,1527.5C3190.63,1424.54 3125.17,1332.78 3157.21,1240.74C3158.65,1236.62 3156.91,1234.06 3152.7,1235.14C3120.64,1243.42 3077.72,1261.69 3061.94,1304.55C3014.27,1434.04 2924.28,1451.13 2973.2,1308.82C3017.72,1179.31 2944.13,1083.91 2842.3,1036.29C2837.77,1034.17 2834.55,1037.09 2836.6,1041.64C2878.75,1134.8 2786.03,1212.77 2715.49,1308.36C2675.67,1362.34 2659.43,1397.19 2659.14,1467.9C2659.1,1483.41 2646.78,1491.35 2638.7,1467.84C2624.3,1425.98 2591.3,1392.16 2552.8,1383.67C2548.26,1382.64 2544.63,1387.52 2546.91,1391.6C2559.99,1415.05 2555.14,1452.42 2547.94,1479.51C2511.76,1615.46 2511.08,1719.27 2614.72,1830.8C2672.68,1893.16 2756.71,1931.72 2868.1,1931.85ZM2795.25,1532.15C2839.14,1578.77 2909.49,1599.72 2978.75,1646.43C3035.48,1684.73 3051.89,1769.07 2997.76,1816.38C2879.09,1920.05 2729.71,1785.5 2704.54,1656.35C2698.61,1625.88 2696.92,1593.74 2698.32,1561.57C2700.65,1507.16 2708.32,1442.26 2739.43,1395.88C2761.57,1362.86 2759.93,1379.67 2756.47,1398.82C2747.72,1447.84 2760.9,1495.65 2795.25,1532.15Z" style="fill:url(#_Linear4);"/>
        <path d="M3162.92,419.285C3132.4,389.272 3081.26,337.088 3090.7,288.598C3091.01,286.957 3090.46,285.395 3089.2,284.315C3087.93,283.234 3086.32,282.907 3084.74,283.487C3036.37,300.826 2989.16,440.162 3050.07,508.544C3136.91,605.997 3246.17,501.183 3162.92,419.285Z" style="fill:url(#_Linear5);"/>
    </g>
    <defs>
        <linearGradient id="_Linear1" x1="0" y1="0" x2="1" y2="0" gradientUnits="userSpaceOnUse" gradientTransform="matrix(784.638,-1193.56,1193.56,784.638,2462.83,1791.06)"><stop offset="0" style="stop-color:rgb(232,65,23);stop-opacity:1"/><stop offset="0.6" style="stop-color:rgb(241,143,48);stop-opacity:1"/><stop offset="1" style="stop-color:rgb(255,204,0);stop-opacity:1"/></linearGradient>
        <linearGradient id="_Linear2" x1="0" y1="0" x2="1" y2="0" gradientUnits="userSpaceOnUse" gradientTransform="matrix(424.289,-486.743,486.743,424.289,2529.84,1222.45)"><stop offset="0" style="stop-color:rgb(232,65,23);stop-opacity:1"/><stop offset="1" style="stop-color:rgb(240,137,49);stop-opacity:1"/></linearGradient>
        <linearGradient id="_Linear3" x1="0" y1="0" x2="1" y2="0" gradientUnits="userSpaceOnUse" gradientTransform="matrix(355.392,-660.721,660.721,355.392,2644.81,1830.83)"><stop offset="0" style="stop-color:rgb(204,40,0);stop-opacity:1"/><stop offset="1" style="stop-color:rgb(235,98,35);stop-opacity:1"/></linearGradient>
        <linearGradient id="_Linear4" x1="0" y1="0" x2="1" y2="0" gradientUnits="userSpaceOnUse" gradientTransform="matrix(572.493,-992.817,992.817,572.493,2508.99,2103.26)"><stop offset="0" style="stop-color:rgb(232,65,23);stop-opacity:1"/><stop offset="0.4" style="stop-color:rgb(240,137,49);stop-opacity:1"/><stop offset="1" style="stop-color:rgb(255,204,0);stop-opacity:1"/></linearGradient>
        <linearGradient id="_Linear5" x1="0" y1="0" x2="1" y2="0" gradientUnits="userSpaceOnUse" gradientTransform="matrix(274.103,-411.898,411.898,274.103,2889.33,787.571)"><stop offset="0" style="stop-color:rgb(232,65,23);stop-opacity:1"/><stop offset="0.6" style="stop-color:rgb(241,143,48);stop-opacity:1"/><stop offset="1" style="stop-color:rgb(255,204,0);stop-opacity:1"/></linearGradient>
    </defs>
</svg>
