<?xml version="1.0" encoding="UTF-8" standalone="no"?>
<!DOCTYPE svg PUBLIC "-//W3C//DTD SVG 1.1//EN" "http://www.w3.org/Graphics/SVG/1.1/DTD/svg11.dtd">
<svg width="100%" height="100%" viewBox="0 0 40 40" version="1.1" xmlns="http://www.w3.org/2000/svg" xmlns:xlink="http://www.w3.org/1999/xlink" xml:space="preserve" xmlns:serif="http://www.serif.com/" style="fill-rule:evenodd;clip-rule:evenodd;stroke-linejoin:round;stroke-miterlimit:2;">
    <g transform="matrix(0.0806452,0,0,0.0806452,-0.645161,-0.645161)">
        <path d="M256,8C119.033,8 8,119.033 8,256C8,392.967 119.033,504 256,504C392.967,504 504,392.967 504,256C504,119.033 392.967,8 256,8ZM256,56C366.532,56 456,145.451 456,256C456,366.532 366.549,456 256,456C145.468,456 56,366.549 56,256C56,145.468 145.451,56 256,56M396.204,186.267L373.668,163.549C369.001,158.844 361.403,158.813 356.698,163.481L215.346,303.697L155.554,243.42C150.887,238.715 143.289,238.684 138.584,243.351L115.865,265.887C111.16,270.554 111.129,278.152 115.797,282.858L206.578,374.374C211.245,379.079 218.843,379.11 223.548,374.442L396.137,203.238C400.841,198.57 400.871,190.972 396.204,186.267Z" style="fill:rgb(212,246,237);fill-rule:nonzero;"/>
    </g>
</svg>
