<svg width="23" height="19" viewBox="0 0 23 19" fill="none" xmlns="http://www.w3.org/2000/svg">
<rect width="23" height="3" rx="1.5" transform="matrix(-1 0 0 1 23 16)" fill="#9494A0"/>
<rect width="23" height="3" rx="1.5" transform="matrix(-1 0 0 1 23 8)" fill="#9494A0"/>
<rect width="23" height="3" rx="1.5" transform="matrix(-1 0 0 1 23 0)" fill="#9494A0"/>
<rect width="10" height="3" rx="1.5" transform="matrix(-1 0 0 1 10 16)" fill="url(#paint0_linear_273_21)"/>
<rect width="15" height="3" rx="1.5" transform="matrix(-1 0 0 1 15 8)" fill="url(#paint1_linear_273_21)"/>
<rect width="23" height="3" rx="1.5" transform="matrix(-1 0 0 1 23 0)" fill="url(#paint2_linear_273_21)"/>
<defs>
<linearGradient id="paint0_linear_273_21" x1="5" y1="0" x2="5" y2="3" gradientUnits="userSpaceOnUse">
<stop stop-color="#FFBA37"/>
<stop offset="1" stop-color="#F46105"/>
</linearGradient>
<linearGradient id="paint1_linear_273_21" x1="7.5" y1="0" x2="7.5" y2="3" gradientUnits="userSpaceOnUse">
<stop stop-color="#FFBA37"/>
<stop offset="1" stop-color="#F46105"/>
</linearGradient>
<linearGradient id="paint2_linear_273_21" x1="11.5" y1="0" x2="11.5" y2="3" gradientUnits="userSpaceOnUse">
<stop stop-color="#FFBA37"/>
<stop offset="1" stop-color="#F46105"/>
</linearGradient>
</defs>
</svg>
