<?xml version="1.0" encoding="UTF-8" standalone="no"?>
<!DOCTYPE svg PUBLIC "-//W3C//DTD SVG 1.1//EN" "http://www.w3.org/Graphics/SVG/1.1/DTD/svg11.dtd">
<svg width="100%" height="100%" viewBox="0 0 42 39" version="1.1" xmlns="http://www.w3.org/2000/svg" xmlns:xlink="http://www.w3.org/1999/xlink" xml:space="preserve" xmlns:serif="http://www.serif.com/" style="fill-rule:evenodd;clip-rule:evenodd;stroke-linejoin:round;stroke-miterlimit:2;">
    <g transform="matrix(0.0865716,0,0,0.0865716,-1.38511,-2.77029)">
        <path d="M261.56,101.28C258.485,98.339 253.575,98.339 250.5,101.28L66.4,277.15C64.821,278.661 63.928,280.755 63.93,282.94L63.9,448C63.9,465.555 78.345,480 95.9,480L192,480C200.777,480 208,472.777 208,464L208,328C208,323.611 211.611,320 216,320L296,320C300.389,320 304,323.611 304,328L304,464C304,472.777 311.223,480 320,480L416.06,480C433.615,480 448.06,465.555 448.06,448L448.06,282.94C448.062,280.755 447.169,278.661 445.59,277.15L261.56,101.28Z" style="fill:rgb(30,185,114);fill-rule:nonzero;"/>
        <path d="M490.91,244.15L416.11,172.59L416.11,64C416.11,55.223 408.887,48 400.11,48L352.11,48C343.333,48 336.11,55.223 336.11,64L336.11,96L278.19,40.62C272.77,35.14 264.71,32 256,32C247.32,32 239.28,35.14 233.86,40.63L21.16,244.13C14.94,250.13 14.16,260 19.82,266.5C22.857,270.006 27.274,272.024 31.913,272.024C36.045,272.024 40.021,270.423 43,267.56L250.5,69.28C253.575,66.339 258.485,66.339 261.56,69.28L469.08,267.56C475.402,273.623 485.589,273.425 491.67,267.12C497.81,260.76 497.3,250.26 490.91,244.15Z" style="fill:rgb(30,185,114);fill-rule:nonzero;"/>
    </g>
</svg>
